<?xml version="1.0" encoding="UTF-8" standalone="no"?>
<!DOCTYPE svg PUBLIC "-//W3C//DTD SVG 1.1//EN" "http://www.w3.org/Graphics/SVG/1.1/DTD/svg11.dtd">
<svg width="100%" height="100%" viewBox="0 0 1200 1200" version="1.1" xmlns="http://www.w3.org/2000/svg" xmlns:xlink="http://www.w3.org/1999/xlink" xml:space="preserve" xmlns:serif="http://www.serif.com/" style="fill-rule:evenodd;clip-rule:evenodd;stroke-linejoin:round;stroke-miterlimit:2;">
    <g>
        <g>
            <g transform="matrix(0.577749,-0.577749,0.567164,0.567164,-408.381,457.14)">
                <rect x="99.975" y="353.726" width="259.628" height="264.474" style="fill:rgb(22,84,9);fill-opacity:0;stroke:rgb(35,89,24);stroke-width:2.35px;stroke-linecap:round;stroke-miterlimit:1.5;"/>
            </g>
            <g transform="matrix(0.703689,0,0,0.703689,-302.347,154.993)">
                <text x="297.667px" y="738.787px" style="font-family:'AppleSymbols', 'Apple Symbols';font-size:381.272px;fill:rgb(22,84,9);stroke:rgb(35,89,24);stroke-width:1.42px;">♣</text>
            </g>
        </g>
        <g>
            <g transform="matrix(0.577749,-0.577749,0.567164,0.567164,-108.381,457.14)">
                <rect x="99.975" y="353.726" width="259.628" height="264.474" style="fill:rgb(22,84,9);fill-opacity:0;stroke:rgb(35,89,24);stroke-width:2.35px;stroke-linecap:round;stroke-miterlimit:1.5;"/>
            </g>
            <g transform="matrix(6.71916,0,0,6.71916,-260.562,-502.481)">
                <text x="71.191px" y="175.223px" style="font-family:'AppleSymbols', 'Apple Symbols';font-size:40px;fill:rgb(22,84,9);stroke:rgb(35,89,24);stroke-width:0.15px;">♠</text>
            </g>
        </g>
        <g>
            <g transform="matrix(0.577749,-0.577749,0.567164,0.567164,191.619,457.14)">
                <rect x="99.975" y="353.726" width="259.628" height="264.474" style="fill:rgb(22,84,9);fill-opacity:0;stroke:rgb(35,89,24);stroke-width:2.35px;stroke-linecap:round;stroke-miterlimit:1.5;"/>
            </g>
            <g transform="matrix(0.70864,0,0,0.70864,518.734,675.528)">
                <text x="0px" y="0px" style="font-family:'AppleSymbols', 'Apple Symbols';font-size:381.272px;fill:rgb(22,84,9);stroke:rgb(35,89,24);stroke-width:1.41px;">♦</text>
            </g>
        </g>
        <g>
            <g transform="matrix(0.577749,-0.577749,0.567164,0.567164,491.619,457.14)">
                <rect x="99.975" y="353.726" width="259.628" height="264.474" style="fill:rgb(22,84,9);fill-opacity:0;stroke:rgb(35,89,24);stroke-width:2.35px;stroke-linecap:round;stroke-miterlimit:1.5;"/>
            </g>
            <g transform="matrix(0.703689,0,0,0.703689,806.332,675.262)">
                <text x="0px" y="-0px" style="font-family:'AppleSymbols', 'Apple Symbols';font-size:381.272px;fill:rgb(22,84,9);stroke:rgb(35,89,24);stroke-width:1.42px;">♥</text>
            </g>
        </g>
        <g>
            <g transform="matrix(0.577749,-0.577749,0.567164,0.567164,791.619,457.14)">
                <rect x="99.975" y="353.726" width="259.628" height="264.474" style="fill:rgb(22,84,9);fill-opacity:0;stroke:rgb(35,89,24);stroke-width:2.35px;stroke-linecap:round;stroke-miterlimit:1.5;"/>
            </g>
            <g transform="matrix(0.703689,0,0,0.703689,897.653,154.993)">
                <text x="297.667px" y="738.787px" style="font-family:'AppleSymbols', 'Apple Symbols';font-size:381.272px;fill:rgb(22,84,9);stroke:rgb(35,89,24);stroke-width:1.42px;">♣</text>
            </g>
        </g>
    </g>
    <g transform="matrix(1,0,0,1,-2.27374e-13,-300)">
        <g>
            <g transform="matrix(0.577749,-0.577749,0.567164,0.567164,-408.381,457.14)">
                <rect x="99.975" y="353.726" width="259.628" height="264.474" style="fill:rgb(22,84,9);fill-opacity:0;stroke:rgb(35,89,24);stroke-width:2.35px;stroke-linecap:round;stroke-miterlimit:1.5;"/>
            </g>
            <g transform="matrix(0.703689,0,0,0.703689,-302.347,154.993)">
                <text x="297.667px" y="738.787px" style="font-family:'AppleSymbols', 'Apple Symbols';font-size:381.272px;fill:rgb(22,84,9);stroke:rgb(35,89,24);stroke-width:1.42px;">♣</text>
            </g>
        </g>
        <g>
            <g transform="matrix(0.577749,-0.577749,0.567164,0.567164,-108.381,457.14)">
                <rect x="99.975" y="353.726" width="259.628" height="264.474" style="fill:rgb(22,84,9);fill-opacity:0;stroke:rgb(35,89,24);stroke-width:2.35px;stroke-linecap:round;stroke-miterlimit:1.5;"/>
            </g>
            <g transform="matrix(6.71916,0,0,6.71916,-260.562,-502.481)">
                <text x="71.191px" y="175.223px" style="font-family:'AppleSymbols', 'Apple Symbols';font-size:40px;fill:rgb(22,84,9);stroke:rgb(35,89,24);stroke-width:0.15px;">♠</text>
            </g>
        </g>
        <g>
            <g transform="matrix(0.577749,-0.577749,0.567164,0.567164,191.619,457.14)">
                <rect x="99.975" y="353.726" width="259.628" height="264.474" style="fill:rgb(22,84,9);fill-opacity:0;stroke:rgb(35,89,24);stroke-width:2.35px;stroke-linecap:round;stroke-miterlimit:1.5;"/>
            </g>
            <g transform="matrix(0.70864,0,0,0.70864,518.734,675.528)">
                <text x="0px" y="0px" style="font-family:'AppleSymbols', 'Apple Symbols';font-size:381.272px;fill:rgb(22,84,9);stroke:rgb(35,89,24);stroke-width:1.41px;">♦</text>
            </g>
        </g>
        <g>
            <g transform="matrix(0.577749,-0.577749,0.567164,0.567164,491.619,457.14)">
                <rect x="99.975" y="353.726" width="259.628" height="264.474" style="fill:rgb(22,84,9);fill-opacity:0;stroke:rgb(35,89,24);stroke-width:2.35px;stroke-linecap:round;stroke-miterlimit:1.5;"/>
            </g>
            <g transform="matrix(0.703689,0,0,0.703689,806.332,675.262)">
                <text x="0px" y="-0px" style="font-family:'AppleSymbols', 'Apple Symbols';font-size:381.272px;fill:rgb(22,84,9);stroke:rgb(35,89,24);stroke-width:1.42px;">♥</text>
            </g>
        </g>
        <g>
            <g transform="matrix(0.577749,-0.577749,0.567164,0.567164,791.619,457.14)">
                <rect x="99.975" y="353.726" width="259.628" height="264.474" style="fill:rgb(22,84,9);fill-opacity:0;stroke:rgb(35,89,24);stroke-width:2.35px;stroke-linecap:round;stroke-miterlimit:1.5;"/>
            </g>
            <g transform="matrix(0.703689,0,0,0.703689,897.653,154.993)">
                <text x="297.667px" y="738.787px" style="font-family:'AppleSymbols', 'Apple Symbols';font-size:381.272px;fill:rgb(22,84,9);stroke:rgb(35,89,24);stroke-width:1.42px;">♣</text>
            </g>
        </g>
    </g>
    <g transform="matrix(1,0,0,1,-4.54747e-13,-600)">
        <g>
            <g transform="matrix(0.577749,-0.577749,0.567164,0.567164,-408.381,457.14)">
                <rect x="99.975" y="353.726" width="259.628" height="264.474" style="fill:rgb(22,84,9);fill-opacity:0;stroke:rgb(35,89,24);stroke-width:2.35px;stroke-linecap:round;stroke-miterlimit:1.5;"/>
            </g>
            <g transform="matrix(0.703689,0,0,0.703689,-302.347,154.993)">
                <text x="297.667px" y="738.787px" style="font-family:'AppleSymbols', 'Apple Symbols';font-size:381.272px;fill:rgb(22,84,9);stroke:rgb(35,89,24);stroke-width:1.42px;">♣</text>
            </g>
        </g>
        <g>
            <g transform="matrix(0.577749,-0.577749,0.567164,0.567164,-108.381,457.14)">
                <rect x="99.975" y="353.726" width="259.628" height="264.474" style="fill:rgb(22,84,9);fill-opacity:0;stroke:rgb(35,89,24);stroke-width:2.35px;stroke-linecap:round;stroke-miterlimit:1.5;"/>
            </g>
            <g transform="matrix(6.71916,0,0,6.71916,-260.562,-502.481)">
                <text x="71.191px" y="175.223px" style="font-family:'AppleSymbols', 'Apple Symbols';font-size:40px;fill:rgb(22,84,9);stroke:rgb(35,89,24);stroke-width:0.15px;">♠</text>
            </g>
        </g>
        <g>
            <g transform="matrix(0.577749,-0.577749,0.567164,0.567164,191.619,457.14)">
                <rect x="99.975" y="353.726" width="259.628" height="264.474" style="fill:rgb(22,84,9);fill-opacity:0;stroke:rgb(35,89,24);stroke-width:2.35px;stroke-linecap:round;stroke-miterlimit:1.5;"/>
            </g>
            <g transform="matrix(0.70864,0,0,0.70864,518.734,675.528)">
                <text x="0px" y="0px" style="font-family:'AppleSymbols', 'Apple Symbols';font-size:381.272px;fill:rgb(22,84,9);stroke:rgb(35,89,24);stroke-width:1.41px;">♦</text>
            </g>
        </g>
        <g>
            <g transform="matrix(0.577749,-0.577749,0.567164,0.567164,491.619,457.14)">
                <rect x="99.975" y="353.726" width="259.628" height="264.474" style="fill:rgb(22,84,9);fill-opacity:0;stroke:rgb(35,89,24);stroke-width:2.35px;stroke-linecap:round;stroke-miterlimit:1.5;"/>
            </g>
            <g transform="matrix(0.703689,0,0,0.703689,806.332,675.262)">
                <text x="0px" y="-0px" style="font-family:'AppleSymbols', 'Apple Symbols';font-size:381.272px;fill:rgb(22,84,9);stroke:rgb(35,89,24);stroke-width:1.42px;">♥</text>
            </g>
        </g>
        <g>
            <g transform="matrix(0.577749,-0.577749,0.567164,0.567164,791.619,457.14)">
                <rect x="99.975" y="353.726" width="259.628" height="264.474" style="fill:rgb(22,84,9);fill-opacity:0;stroke:rgb(35,89,24);stroke-width:2.35px;stroke-linecap:round;stroke-miterlimit:1.5;"/>
            </g>
            <g transform="matrix(0.703689,0,0,0.703689,897.653,154.993)">
                <text x="297.667px" y="738.787px" style="font-family:'AppleSymbols', 'Apple Symbols';font-size:381.272px;fill:rgb(22,84,9);stroke:rgb(35,89,24);stroke-width:1.42px;">♣</text>
            </g>
        </g>
    </g>
    <g transform="matrix(1,0,0,1,0,300)">
        <g>
            <g transform="matrix(0.577749,-0.577749,0.567164,0.567164,-408.381,457.14)">
                <rect x="99.975" y="353.726" width="259.628" height="264.474" style="fill:rgb(22,84,9);fill-opacity:0;stroke:rgb(35,89,24);stroke-width:2.35px;stroke-linecap:round;stroke-miterlimit:1.5;"/>
            </g>
            <g transform="matrix(0.703689,0,0,0.703689,-302.347,154.993)">
                <text x="297.667px" y="738.787px" style="font-family:'AppleSymbols', 'Apple Symbols';font-size:381.272px;fill:rgb(22,84,9);stroke:rgb(35,89,24);stroke-width:1.42px;">♣</text>
            </g>
        </g>
        <g>
            <g transform="matrix(0.577749,-0.577749,0.567164,0.567164,-108.381,457.14)">
                <rect x="99.975" y="353.726" width="259.628" height="264.474" style="fill:rgb(22,84,9);fill-opacity:0;stroke:rgb(35,89,24);stroke-width:2.35px;stroke-linecap:round;stroke-miterlimit:1.5;"/>
            </g>
            <g transform="matrix(6.71916,0,0,6.71916,-260.562,-502.481)">
                <text x="71.191px" y="175.223px" style="font-family:'AppleSymbols', 'Apple Symbols';font-size:40px;fill:rgb(22,84,9);stroke:rgb(35,89,24);stroke-width:0.15px;">♠</text>
            </g>
        </g>
        <g>
            <g transform="matrix(0.577749,-0.577749,0.567164,0.567164,191.619,457.14)">
                <rect x="99.975" y="353.726" width="259.628" height="264.474" style="fill:rgb(22,84,9);fill-opacity:0;stroke:rgb(35,89,24);stroke-width:2.35px;stroke-linecap:round;stroke-miterlimit:1.5;"/>
            </g>
            <g transform="matrix(0.70864,0,0,0.70864,518.734,675.528)">
                <text x="0px" y="0px" style="font-family:'AppleSymbols', 'Apple Symbols';font-size:381.272px;fill:rgb(22,84,9);stroke:rgb(35,89,24);stroke-width:1.41px;">♦</text>
            </g>
        </g>
        <g>
            <g transform="matrix(0.577749,-0.577749,0.567164,0.567164,491.619,457.14)">
                <rect x="99.975" y="353.726" width="259.628" height="264.474" style="fill:rgb(22,84,9);fill-opacity:0;stroke:rgb(35,89,24);stroke-width:2.35px;stroke-linecap:round;stroke-miterlimit:1.5;"/>
            </g>
            <g transform="matrix(0.703689,0,0,0.703689,806.332,675.262)">
                <text x="0px" y="-0px" style="font-family:'AppleSymbols', 'Apple Symbols';font-size:381.272px;fill:rgb(22,84,9);stroke:rgb(35,89,24);stroke-width:1.42px;">♥</text>
            </g>
        </g>
        <g>
            <g transform="matrix(0.577749,-0.577749,0.567164,0.567164,791.619,457.14)">
                <rect x="99.975" y="353.726" width="259.628" height="264.474" style="fill:rgb(22,84,9);fill-opacity:0;stroke:rgb(35,89,24);stroke-width:2.35px;stroke-linecap:round;stroke-miterlimit:1.5;"/>
            </g>
            <g transform="matrix(0.703689,0,0,0.703689,897.653,154.993)">
                <text x="297.667px" y="738.787px" style="font-family:'AppleSymbols', 'Apple Symbols';font-size:381.272px;fill:rgb(22,84,9);stroke:rgb(35,89,24);stroke-width:1.42px;">♣</text>
            </g>
        </g>
    </g>
    <g transform="matrix(1,0,0,1,1.13687e-13,600)">
        <g>
            <g transform="matrix(0.577749,-0.577749,0.567164,0.567164,-408.381,457.14)">
                <rect x="99.975" y="353.726" width="259.628" height="264.474" style="fill:rgb(22,84,9);fill-opacity:0;stroke:rgb(35,89,24);stroke-width:2.35px;stroke-linecap:round;stroke-miterlimit:1.5;"/>
            </g>
            <g transform="matrix(0.703689,0,0,0.703689,-302.347,154.993)">
                <text x="297.667px" y="738.787px" style="font-family:'AppleSymbols', 'Apple Symbols';font-size:381.272px;fill:rgb(22,84,9);stroke:rgb(35,89,24);stroke-width:1.42px;">♣</text>
            </g>
        </g>
        <g>
            <g transform="matrix(0.577749,-0.577749,0.567164,0.567164,-108.381,457.14)">
                <rect x="99.975" y="353.726" width="259.628" height="264.474" style="fill:rgb(22,84,9);fill-opacity:0;stroke:rgb(35,89,24);stroke-width:2.35px;stroke-linecap:round;stroke-miterlimit:1.5;"/>
            </g>
            <g transform="matrix(6.71916,0,0,6.71916,-260.562,-502.481)">
                <text x="71.191px" y="175.223px" style="font-family:'AppleSymbols', 'Apple Symbols';font-size:40px;fill:rgb(22,84,9);stroke:rgb(35,89,24);stroke-width:0.15px;">♠</text>
            </g>
        </g>
        <g>
            <g transform="matrix(0.577749,-0.577749,0.567164,0.567164,191.619,457.14)">
                <rect x="99.975" y="353.726" width="259.628" height="264.474" style="fill:rgb(22,84,9);fill-opacity:0;stroke:rgb(35,89,24);stroke-width:2.35px;stroke-linecap:round;stroke-miterlimit:1.5;"/>
            </g>
            <g transform="matrix(0.70864,0,0,0.70864,518.734,675.528)">
                <text x="0px" y="0px" style="font-family:'AppleSymbols', 'Apple Symbols';font-size:381.272px;fill:rgb(22,84,9);stroke:rgb(35,89,24);stroke-width:1.41px;">♦</text>
            </g>
        </g>
        <g>
            <g transform="matrix(0.577749,-0.577749,0.567164,0.567164,491.619,457.14)">
                <rect x="99.975" y="353.726" width="259.628" height="264.474" style="fill:rgb(22,84,9);fill-opacity:0;stroke:rgb(35,89,24);stroke-width:2.35px;stroke-linecap:round;stroke-miterlimit:1.5;"/>
            </g>
            <g transform="matrix(0.703689,0,0,0.703689,806.332,675.262)">
                <text x="0px" y="-0px" style="font-family:'AppleSymbols', 'Apple Symbols';font-size:381.272px;fill:rgb(22,84,9);stroke:rgb(35,89,24);stroke-width:1.42px;">♥</text>
            </g>
        </g>
        <g>
            <g transform="matrix(0.577749,-0.577749,0.567164,0.567164,791.619,457.14)">
                <rect x="99.975" y="353.726" width="259.628" height="264.474" style="fill:rgb(22,84,9);fill-opacity:0;stroke:rgb(35,89,24);stroke-width:2.35px;stroke-linecap:round;stroke-miterlimit:1.5;"/>
            </g>
            <g transform="matrix(0.703689,0,0,0.703689,897.653,154.993)">
                <text x="297.667px" y="738.787px" style="font-family:'AppleSymbols', 'Apple Symbols';font-size:381.272px;fill:rgb(22,84,9);stroke:rgb(35,89,24);stroke-width:1.42px;">♣</text>
            </g>
        </g>
    </g>
    <g transform="matrix(1,0,0,1,450,-150)">
        <g>
            <g transform="matrix(0.577749,-0.577749,0.567164,0.567164,-108.381,457.14)">
                <rect x="99.975" y="353.726" width="259.628" height="264.474" style="fill:rgb(22,84,9);fill-opacity:0;stroke:rgb(35,89,24);stroke-width:2.35px;stroke-linecap:round;stroke-miterlimit:1.5;"/>
            </g>
            <g transform="matrix(6.71916,0,0,6.71916,-260.562,-502.481)">
                <text x="71.191px" y="175.223px" style="font-family:'AppleSymbols', 'Apple Symbols';font-size:40px;fill:rgb(22,84,9);stroke:rgb(35,89,24);stroke-width:0.15px;">♠</text>
            </g>
        </g>
        <g>
            <g transform="matrix(0.577749,-0.577749,0.567164,0.567164,191.619,457.14)">
                <rect x="99.975" y="353.726" width="259.628" height="264.474" style="fill:rgb(22,84,9);fill-opacity:0;stroke:rgb(35,89,24);stroke-width:2.35px;stroke-linecap:round;stroke-miterlimit:1.5;"/>
            </g>
            <g transform="matrix(0.70864,0,0,0.70864,518.734,675.528)">
                <text x="0px" y="0px" style="font-family:'AppleSymbols', 'Apple Symbols';font-size:381.272px;fill:rgb(22,84,9);stroke:rgb(35,89,24);stroke-width:1.41px;">♦</text>
            </g>
        </g>
        <g transform="matrix(1,0,0,1,-1200,-5.68434e-14)">
            <g transform="matrix(0.577749,-0.577749,0.567164,0.567164,491.619,457.14)">
                <rect x="99.975" y="353.726" width="259.628" height="264.474" style="fill:rgb(22,84,9);fill-opacity:0;stroke:rgb(35,89,24);stroke-width:2.35px;stroke-linecap:round;stroke-miterlimit:1.5;"/>
            </g>
            <g transform="matrix(0.703689,0,0,0.703689,806.332,675.262)">
                <text x="0px" y="-0px" style="font-family:'AppleSymbols', 'Apple Symbols';font-size:381.272px;fill:rgb(22,84,9);stroke:rgb(35,89,24);stroke-width:1.42px;">♥</text>
            </g>
        </g>
        <g transform="matrix(1,0,0,1,-1200,-5.68434e-14)">
            <g transform="matrix(0.577749,-0.577749,0.567164,0.567164,791.619,457.14)">
                <rect x="99.975" y="353.726" width="259.628" height="264.474" style="fill:rgb(22,84,9);fill-opacity:0;stroke:rgb(35,89,24);stroke-width:2.35px;stroke-linecap:round;stroke-miterlimit:1.5;"/>
            </g>
            <g transform="matrix(0.703689,0,0,0.703689,897.653,154.993)">
                <text x="297.667px" y="738.787px" style="font-family:'AppleSymbols', 'Apple Symbols';font-size:381.272px;fill:rgb(22,84,9);stroke:rgb(35,89,24);stroke-width:1.42px;">♣</text>
            </g>
        </g>
    </g>
    <g transform="matrix(1,0,0,1,450,150)">
        <g>
            <g transform="matrix(0.577749,-0.577749,0.567164,0.567164,-108.381,457.14)">
                <rect x="99.975" y="353.726" width="259.628" height="264.474" style="fill:rgb(22,84,9);fill-opacity:0;stroke:rgb(35,89,24);stroke-width:2.35px;stroke-linecap:round;stroke-miterlimit:1.5;"/>
            </g>
            <g transform="matrix(6.71916,0,0,6.71916,-260.562,-502.481)">
                <text x="71.191px" y="175.223px" style="font-family:'AppleSymbols', 'Apple Symbols';font-size:40px;fill:rgb(22,84,9);stroke:rgb(35,89,24);stroke-width:0.15px;">♠</text>
            </g>
        </g>
        <g>
            <g transform="matrix(0.577749,-0.577749,0.567164,0.567164,191.619,457.14)">
                <rect x="99.975" y="353.726" width="259.628" height="264.474" style="fill:rgb(22,84,9);fill-opacity:0;stroke:rgb(35,89,24);stroke-width:2.35px;stroke-linecap:round;stroke-miterlimit:1.5;"/>
            </g>
            <g transform="matrix(0.70864,0,0,0.70864,518.734,675.528)">
                <text x="0px" y="0px" style="font-family:'AppleSymbols', 'Apple Symbols';font-size:381.272px;fill:rgb(22,84,9);stroke:rgb(35,89,24);stroke-width:1.41px;">♦</text>
            </g>
        </g>
        <g transform="matrix(1,0,0,1,-1200,-5.68434e-14)">
            <g transform="matrix(0.577749,-0.577749,0.567164,0.567164,491.619,457.14)">
                <rect x="99.975" y="353.726" width="259.628" height="264.474" style="fill:rgb(22,84,9);fill-opacity:0;stroke:rgb(35,89,24);stroke-width:2.35px;stroke-linecap:round;stroke-miterlimit:1.5;"/>
            </g>
            <g transform="matrix(0.703689,0,0,0.703689,806.332,675.262)">
                <text x="0px" y="-0px" style="font-family:'AppleSymbols', 'Apple Symbols';font-size:381.272px;fill:rgb(22,84,9);stroke:rgb(35,89,24);stroke-width:1.42px;">♥</text>
            </g>
        </g>
        <g transform="matrix(1,0,0,1,-1200,-5.68434e-14)">
            <g transform="matrix(0.577749,-0.577749,0.567164,0.567164,791.619,457.14)">
                <rect x="99.975" y="353.726" width="259.628" height="264.474" style="fill:rgb(22,84,9);fill-opacity:0;stroke:rgb(35,89,24);stroke-width:2.35px;stroke-linecap:round;stroke-miterlimit:1.5;"/>
            </g>
            <g transform="matrix(0.703689,0,0,0.703689,897.653,154.993)">
                <text x="297.667px" y="738.787px" style="font-family:'AppleSymbols', 'Apple Symbols';font-size:381.272px;fill:rgb(22,84,9);stroke:rgb(35,89,24);stroke-width:1.42px;">♣</text>
            </g>
        </g>
    </g>
    <g transform="matrix(1,0,0,1,450,450)">
        <g>
            <g transform="matrix(0.577749,-0.577749,0.567164,0.567164,-108.381,457.14)">
                <rect x="99.975" y="353.726" width="259.628" height="264.474" style="fill:rgb(22,84,9);fill-opacity:0;stroke:rgb(35,89,24);stroke-width:2.35px;stroke-linecap:round;stroke-miterlimit:1.5;"/>
            </g>
            <g transform="matrix(6.71916,0,0,6.71916,-260.562,-502.481)">
                <text x="71.191px" y="175.223px" style="font-family:'AppleSymbols', 'Apple Symbols';font-size:40px;fill:rgb(22,84,9);stroke:rgb(35,89,24);stroke-width:0.15px;">♠</text>
            </g>
        </g>
        <g>
            <g transform="matrix(0.577749,-0.577749,0.567164,0.567164,191.619,457.14)">
                <rect x="99.975" y="353.726" width="259.628" height="264.474" style="fill:rgb(22,84,9);fill-opacity:0;stroke:rgb(35,89,24);stroke-width:2.35px;stroke-linecap:round;stroke-miterlimit:1.5;"/>
            </g>
            <g transform="matrix(0.70864,0,0,0.70864,518.734,675.528)">
                <text x="0px" y="0px" style="font-family:'AppleSymbols', 'Apple Symbols';font-size:381.272px;fill:rgb(22,84,9);stroke:rgb(35,89,24);stroke-width:1.41px;">♦</text>
            </g>
        </g>
        <g transform="matrix(1,0,0,1,-1200,-5.68434e-14)">
            <g transform="matrix(0.577749,-0.577749,0.567164,0.567164,491.619,457.14)">
                <rect x="99.975" y="353.726" width="259.628" height="264.474" style="fill:rgb(22,84,9);fill-opacity:0;stroke:rgb(35,89,24);stroke-width:2.35px;stroke-linecap:round;stroke-miterlimit:1.5;"/>
            </g>
            <g transform="matrix(0.703689,0,0,0.703689,806.332,675.262)">
                <text x="0px" y="-0px" style="font-family:'AppleSymbols', 'Apple Symbols';font-size:381.272px;fill:rgb(22,84,9);stroke:rgb(35,89,24);stroke-width:1.42px;">♥</text>
            </g>
        </g>
        <g transform="matrix(1,0,0,1,-1200,-5.68434e-14)">
            <g transform="matrix(0.577749,-0.577749,0.567164,0.567164,791.619,457.14)">
                <rect x="99.975" y="353.726" width="259.628" height="264.474" style="fill:rgb(22,84,9);fill-opacity:0;stroke:rgb(35,89,24);stroke-width:2.35px;stroke-linecap:round;stroke-miterlimit:1.5;"/>
            </g>
            <g transform="matrix(0.703689,0,0,0.703689,897.653,154.993)">
                <text x="297.667px" y="738.787px" style="font-family:'AppleSymbols', 'Apple Symbols';font-size:381.272px;fill:rgb(22,84,9);stroke:rgb(35,89,24);stroke-width:1.42px;">♣</text>
            </g>
        </g>
    </g>
    <g transform="matrix(1,0,0,1,450,-450)">
        <g>
            <g transform="matrix(0.577749,-0.577749,0.567164,0.567164,-108.381,457.14)">
                <rect x="99.975" y="353.726" width="259.628" height="264.474" style="fill:rgb(22,84,9);fill-opacity:0;stroke:rgb(35,89,24);stroke-width:2.35px;stroke-linecap:round;stroke-miterlimit:1.5;"/>
            </g>
            <g transform="matrix(6.71916,0,0,6.71916,-260.562,-502.481)">
                <text x="71.191px" y="175.223px" style="font-family:'AppleSymbols', 'Apple Symbols';font-size:40px;fill:rgb(22,84,9);stroke:rgb(35,89,24);stroke-width:0.15px;">♠</text>
            </g>
        </g>
        <g>
            <g transform="matrix(0.577749,-0.577749,0.567164,0.567164,191.619,457.14)">
                <rect x="99.975" y="353.726" width="259.628" height="264.474" style="fill:rgb(22,84,9);fill-opacity:0;stroke:rgb(35,89,24);stroke-width:2.35px;stroke-linecap:round;stroke-miterlimit:1.5;"/>
            </g>
            <g transform="matrix(0.70864,0,0,0.70864,518.734,675.528)">
                <text x="0px" y="0px" style="font-family:'AppleSymbols', 'Apple Symbols';font-size:381.272px;fill:rgb(22,84,9);stroke:rgb(35,89,24);stroke-width:1.41px;">♦</text>
            </g>
        </g>
        <g transform="matrix(1,0,0,1,-1200,-5.68434e-14)">
            <g transform="matrix(0.577749,-0.577749,0.567164,0.567164,491.619,457.14)">
                <rect x="99.975" y="353.726" width="259.628" height="264.474" style="fill:rgb(22,84,9);fill-opacity:0;stroke:rgb(35,89,24);stroke-width:2.35px;stroke-linecap:round;stroke-miterlimit:1.5;"/>
            </g>
            <g transform="matrix(0.703689,0,0,0.703689,806.332,675.262)">
                <text x="0px" y="-0px" style="font-family:'AppleSymbols', 'Apple Symbols';font-size:381.272px;fill:rgb(22,84,9);stroke:rgb(35,89,24);stroke-width:1.42px;">♥</text>
            </g>
        </g>
        <g transform="matrix(1,0,0,1,-1200,-5.68434e-14)">
            <g transform="matrix(0.577749,-0.577749,0.567164,0.567164,791.619,457.14)">
                <rect x="99.975" y="353.726" width="259.628" height="264.474" style="fill:rgb(22,84,9);fill-opacity:0;stroke:rgb(35,89,24);stroke-width:2.35px;stroke-linecap:round;stroke-miterlimit:1.5;"/>
            </g>
            <g transform="matrix(0.703689,0,0,0.703689,897.653,154.993)">
                <text x="297.667px" y="738.787px" style="font-family:'AppleSymbols', 'Apple Symbols';font-size:381.272px;fill:rgb(22,84,9);stroke:rgb(35,89,24);stroke-width:1.42px;">♣</text>
            </g>
        </g>
    </g>
</svg>
